<svg width="62" height="62" viewBox="0 0 62 62" fill="none" xmlns="http://www.w3.org/2000/svg">
<circle cx="31" cy="31" r="30" stroke="white" stroke-opacity="0.2"/>
<ellipse cx="31" cy="31" rx="20" ry="20" fill="white"/>
<path d="M30.3359 35.25L25.0234 29.9375C24.8411 29.7552 24.75 29.5339 24.75 29.2734C24.75 29.013 24.8411 28.7917 25.0234 28.6094L25.9219 27.75C26.1042 27.5677 26.3255 27.4766 26.5859 27.4766C26.8464 27.4766 27.0677 27.5677 27.25 27.75L31 31.5L34.75 27.75C34.9323 27.5677 35.1536 27.4766 35.4141 27.4766C35.6745 27.4766 35.8958 27.5677 36.0781 27.75L36.9766 28.6094C37.1589 28.7917 37.25 29.013 37.25 29.2734C37.25 29.5339 37.1589 29.7552 36.9766 29.9375L31.6641 35.25C31.4818 35.4323 31.2604 35.5234 31 35.5234C30.7396 35.5234 30.5182 35.4323 30.3359 35.25Z" fill="#333333"/>
</svg>
